<?xml version="1.0" standalone="no"?>
<!DOCTYPE svg PUBLIC "-//W3C//DTD SVG 1.1//EN" "http://www.w3.org/Graphics/SVG/1.1/DTD/svg11.dtd" >
<svg xmlns="http://www.w3.org/2000/svg">
<metadata>Generated by IcoMoon</metadata>
<defs>
<font id="icomoon" horiz-adv-x="1024">
<font-face units-per-em="1024" ascent="960" descent="-64" />
<missing-glyph horiz-adv-x="1024" />
<glyph unicode="&#x20;" horiz-adv-x="512" d="" />
<glyph unicode="&#xe900;" glyph-name="arrows" horiz-adv-x="799" d="M750.621 740.045h-622.299l148.509 148.509c4.579 5.656 7.351 12.938 7.351 20.868 0 18.388-14.907 33.295-33.295 33.295-7.93 0-15.212-2.772-20.931-7.401l0.063 0.049-205.619-205.093c-5.944-6.011-9.615-14.28-9.615-23.406s3.672-17.395 9.618-23.409l205.324-205.382c5.656-4.579 12.938-7.351 20.868-7.351 18.388 0 33.295 14.907 33.295 33.295 0 7.93-2.772 15.212-7.401 20.931l0.049-0.063-148.217 148.509h622.299c18.388 0 33.295 14.907 33.295 33.295s-14.907 33.295-33.295 33.295v0zM47.923 222.661h622.065l-148.217 148.451c-7.604 6.153-12.426 15.485-12.426 25.943 0 18.388 14.907 33.295 33.295 33.295 10.458 0 19.79-4.822 25.894-12.364l0.049-0.063 205.327-205.327c5.944-6.011 9.615-14.28 9.615-23.406s-3.672-17.395-9.618-23.409l-205.090-205.090c-5.656-4.579-12.938-7.351-20.868-7.351-18.388 0-33.295 14.907-33.295 33.295 0 7.93 2.772 15.212 7.401 20.931l-0.049-0.063 147.983 148.509h-622.065c-18.388 0-33.295 14.907-33.295 33.295s14.907 33.295 33.295 33.295v0z" />
<glyph unicode="&#xe901;" glyph-name="authorize" d="M847.69 773.631v93.872c-0.056 46.337-37.618 83.882-83.957 83.91h-671.236c-46.32-0.056-83.854-37.59-83.91-83.905v-369.186c0.136-43.15 32.887-78.608 74.886-83.021l0.363-0.031 63.080-163.748c12.469-31.707 42.819-53.741 78.316-53.741 10.844 0 21.208 2.057 30.723 5.801l-0.569-0.197 393.888 151.824c-10.149-25.735-16.032-55.543-16.032-86.725 0-47.685 13.759-92.157 37.524-129.661l-0.587 0.992 9.642-15.408v-163.012c0-9.268 7.514-16.782 16.782-16.782v0h302.053c9.268 0 16.782 7.514 16.782 16.782v0 553.857c-0.193 60.378-24.72 114.99-64.283 154.572l0.001-0.001zM847.69 673.282l50.935-132.196c2.13-5.369 3.365-11.589 3.365-18.098 0-21.285-13.209-39.486-31.877-46.851l-0.341-0.119-29.123-11.237c4.453 9.879 7.061 21.413 7.091 33.553v0.011zM42.151 498.322v369.181c0 27.805 22.541 50.346 50.346 50.346v0h671.233c27.805 0 50.346-22.541 50.346-50.346v0-106.654h-0.147l0.147-0.393v-262.134c-0.14-3.159-0.544-6.139-1.193-9.026l0.064 0.341-153.713 153.737c-16.107 15.673-38.129 25.337-62.409 25.337-49.445 0-89.529-40.083-89.529-89.529 0-22.924 8.616-43.836 22.786-59.674l-0.076 0.086 65.533-71.569h-503.045c-27.788 0-50.318 22.513-50.346 50.294v0.003zM257.129 414.411l-119.339-45.93-17.665 45.93zM243.291 234.74c-5.366-2.128-11.584-3.362-18.090-3.362-21.293 0-39.499 13.219-46.859 31.899l-0.119 0.341-28.314 73.606 200.305 77.188h276.070l21.812-23.775zM981.799-21.873h-268.415v134.183h268.488zM981.799 145.947h-275.873l-7.361 11.63c-19.994 31.498-31.864 69.861-31.864 110.997 0 38.23 10.252 74.066 28.156 104.908l-0.537-1.002c1.38 2.384 2.195 5.246 2.195 8.297 0 4.374-1.673 8.356-4.414 11.343l0.011-0.012-137.397 150.033c-9.19 9.94-14.826 23.283-14.826 37.943 0 30.908 25.056 55.965 55.965 55.965 15.508 0 29.542-6.307 39.678-16.497l267.435-267.435 23.726 23.726-62.099 62.099 17.175 6.723c31.689 12.469 53.711 42.807 53.711 78.287 0 10.837-2.054 21.194-5.795 30.703l0.197-0.569-56.799 147.481 54.37-54.468c33.532-33.512 54.32-79.774 54.468-130.891v-0.028zM981.799 145.947M92.498 666.142h67.128v-33.564h-67.128zM92.498 666.142M92.498 767.080h67.128v-33.564h-67.128zM92.498 767.080M92.498 565.45h67.128v-33.564h-67.128zM92.498 565.45M394.55 565.45h67.128v-33.564h-67.128zM394.55 565.45M193.165 666.142h67.128v-33.564h-67.128zM193.165 666.142M193.165 767.080h67.128v-33.564h-67.128zM193.165 767.080M293.858 666.142h67.128v-33.564h-67.128zM293.858 666.142M394.55 666.142h67.128v-33.564h-67.128zM394.55 666.142M713.385 867.502h33.564v-50.346h-33.564zM713.385 867.502M646.256 867.502h33.564v-50.346h-33.564zM646.256 867.502M579.128 867.502h33.564v-50.346h-33.564zM579.128 867.502M512.025 867.502h33.564v-50.346h-33.564zM512.025 867.502M746.949 78.795h33.564v-33.564h-33.564zM746.949 78.795" />
<glyph unicode="&#xe902;" glyph-name="calendar" horiz-adv-x="951" d="M880.33 836.103h-77.845v53.117c0 39.075-31.665 70.755-70.734 70.78h-3.018c-39.091 0-70.78-31.689-70.78-70.78v0-53.117h-364.97v53.117c0 39.075-31.665 70.755-70.734 70.78h-2.846c-39.091 0-70.78-31.689-70.78-70.78v0-53.117h-77.802c-39.091 0-70.78-31.689-70.78-70.78v-758.544c0-39.091 31.689-70.78 70.78-70.78v0h809.507c39.091 0 70.78 31.689 70.78 70.78v0 758.544c0 39.091-31.689 70.78-70.78 70.78v0zM832.124 47.791h-713.181v574.595h713.181zM215.914 362.358h123.121c6.257 0 11.33 5.073 11.33 11.33v123.078c0 6.257-5.073 11.33-11.33 11.33v0h-123.121c-6.257 0-11.33-5.073-11.33-11.33v0-123.121c0.024-6.239 5.088-11.287 11.33-11.287 0 0 0 0 0 0v0zM414.080 362.358h123.121c6.257 0 11.33 5.073 11.33 11.33v123.078c0 6.257-5.073 11.33-11.33 11.33v0h-123.121c-6.257 0-11.33-5.073-11.33-11.33v0-123.121c0.024-6.239 5.088-11.287 11.33-11.287 0 0 0 0 0 0v0zM612.203 362.358h123.121c6.257 0 11.33 5.073 11.33 11.33v123.078c0 6.257-5.073 11.33-11.33 11.33v0h-123.121c-6.257 0-11.33-5.073-11.33-11.33v0-123.121c0.024-6.239 5.088-11.287 11.33-11.287 0 0 0 0 0 0v0zM215.914 164.235h123.121c6.257 0 11.33 5.073 11.33 11.33v123.078c0 6.257-5.073 11.33-11.33 11.33v0h-123.121c-6.257 0-11.33-5.073-11.33-11.33v0-123.121c0.024-6.239 5.088-11.287 11.33-11.287 0 0 0 0 0 0v0zM414.080 164.235h123.121c6.257 0 11.33 5.073 11.33 11.33v123.078c0 6.257-5.073 11.33-11.33 11.33v0h-123.121c-6.257 0-11.33-5.073-11.33-11.33v0-123.121c0.024-6.239 5.088-11.287 11.33-11.287 0 0 0 0 0 0v0zM612.203 164.235h123.121c6.257 0 11.33 5.073 11.33 11.33v123.078c0 6.257-5.073 11.33-11.33 11.33v0h-123.121c-6.257 0-11.33-5.073-11.33-11.33v0-123.121c0.024-6.239 5.088-11.287 11.33-11.287 0 0 0 0 0 0v0z" />
<glyph unicode="&#xe903;" glyph-name="cart" horiz-adv-x="831" d="M828.186 66.953q-12.31 116.533-25.264 232.978-13.306 120.431-26.994 240.833c-3.957 35.171-7.063 70.342-12.456 105.513-9.3 43.46-47.38 75.574-92.961 75.574-1.023 0-2.042-0.016-3.057-0.048l0.148 0.004c-22.421 0.469-44.872 0-66.766 0-1.729 32.24-1.407 60.992-5.129 89.334-11.951 84.597-83.87 148.958-170.821 148.958-82.251 0-151.051-57.592-168.274-134.65l-0.216-1.149c-2.906-17.005-4.566-36.592-4.566-56.567 0-7.465 0.232-14.876 0.689-22.226l-0.050 1.007c0.469-18.758-4.103-26.671-24.327-25.089-10.53 0.663-22.835 1.041-35.228 1.041-10.908 0-21.748-0.293-32.512-0.871l1.502 0.064c-0.459 0.008-1.001 0.013-1.544 0.013-48.862 0-88.997-37.365-93.39-85.081l-0.027-0.368c-3.429-25.147-5.862-50.412-8.793-75.617q-13.394-117.412-26.759-234.795c-9.144-80.952-16.618-162.108-27.551-242.796-11.724-86.022-0.821-108.883 78.402-147.014h666.752c2.444 1.81 5.236 3.377 8.218 4.571l0.252 0.089c38.628 7.739 68.079 39.146 72.79 78.172l0.043 0.435c0.438 4.744 0.688 10.261 0.688 15.836 0 11.256-1.018 22.274-2.967 32.967l0.169-1.117zM568.303 567.288c19.748 0 35.757-16.009 35.757-35.757s-16.009-35.757-35.757-35.757c-19.748 0-35.757 16.009-35.757 35.757v0c0 19.748 16.009 35.757 35.757 35.757v0zM310.588 735.668c-0.005 0.954-0.008 2.082-0.008 3.211 0 24.16 1.28 48.022 3.777 71.52l-0.252-2.924c9.075 53.612 55.166 93.934 110.674 93.934 3.6 0 7.161-0.17 10.675-0.501l-0.449 0.034c57.813-5.773 102.583-54.165 102.583-113.013 0-0.176 0-0.352-0.001-0.528v0.027c0-20.663 0-41.326 0-65.594h-38.102q-85.201 0-170.403 0c-9.906-0.088-19.168-0.322-18.465 13.834zM277.879 567.288c19.748 0 35.757-16.009 35.757-35.757s-16.009-35.757-35.757-35.757c-19.748 0-35.757 16.009-35.757 35.757v0c0 19.748 16.009 35.757 35.757 35.757v0zM733.020-1.132q-317.212-0.147-634.395 0c-27.14 0-39.89 12.31-37.516 39.802 4.953 57.182 11.548 114.305 17.791 171.282 7.269 66.326 14.889 132.624 22.275 198.95 8.207 73.624 15.973 147.307 24.708 220.873 0.552 16.887 14.374 30.367 31.345 30.367 0.16 0 0.32-0.001 0.479-0.004h-0.024c26.73 0.791 53.518 0.41 80.307 0 0.201 0.008 0.437 0.013 0.674 0.013 4.464 0 8.531-1.697 11.592-4.481l-0.014 0.013c1.635-5.403 2.576-11.613 2.576-18.043 0-15.75-5.647-30.181-15.026-41.379l0.082 0.101c-22.039-13.561-36.512-37.549-36.512-64.919 0-6.431 0.799-12.675 2.303-18.638l-0.112 0.524c7.907-34.093 37.060-59.459 72.471-61.539l0.215-0.010c0.346-0.005 0.754-0.008 1.163-0.008 32.727 0 60.872 19.62 73.314 47.739l0.202 0.512c4.044 8.989 6.399 19.484 6.399 30.53 0 24.147-11.257 45.665-28.81 59.592l-0.157 0.12c-11.892 11.409-19.281 27.432-19.281 45.181 0 6.037 0.855 11.874 2.45 17.397l-0.109-0.442c1.861 3.843 5.388 6.627 9.617 7.431l0.084 0.013c71.397 0.44 142.764 0.322 216.359 0.322 0-18.084 0.938-34.057-0.528-49.825-0.498-5.188-6.507-10.844-11.343-14.655-21.359-14.104-35.257-38.002-35.257-65.146 0-7.377 1.027-14.515 2.945-21.278l-0.133 0.548c9.025-31.539 36.144-54.806 69.136-58.006l0.326-0.026c1.064-0.050 2.311-0.078 3.565-0.078 31.147 0 58.205 17.509 71.869 43.221l0.213 0.44c5.097 10.078 8.082 21.97 8.082 34.559 0 21.197-8.463 40.418-22.194 54.467l0.014-0.015c-28.137 28.84-28.4 29.602-23.447 74.679 9.236 0.537 20.038 0.843 30.911 0.843 17.534 0 34.883-0.796 52.011-2.353l-2.205 0.162c11.859-5.012 20.62-15.319 23.399-27.875l0.049-0.262c9.906-73.273 17.175-147.161 25.382-220.785 8.793-78.255 17.585-156.51 26.202-234.795 4.953-45.107 10.287-90.213 13.892-135.466 2.198-27.287-10.317-39.626-37.34-39.626z" />
<glyph unicode="&#xe904;" glyph-name="chevron-down" horiz-adv-x="1910" d="M1889.953 844.735c12.187 12.219 19.723 29.083 19.723 47.707s-7.536 35.487-19.724 47.708l0.001-0.001c-12.219 12.187-29.083 19.723-47.707 19.723s-35.487-7.536-47.708-19.724l0.001 0.001-840.406-839.483-839.637 839.637c-11.922 10.775-27.803 17.368-45.223 17.368-37.312 0-67.559-30.247-67.559-67.559 0-17.42 6.593-33.301 17.421-45.282l-0.052 0.059 887.344-889.036c12.219-12.187 29.083-19.723 47.707-19.723s35.487 7.536 47.708 19.724l-0.001-0.001z" />
<glyph unicode="&#xe905;" glyph-name="chevron-right" horiz-adv-x="597" d="M105.008 906.17c-5.964 5.953-14.198 9.634-23.291 9.634s-17.327-3.681-23.291-9.635l0.001 0.001c-5.953-5.964-9.634-14.198-9.634-23.291s3.681-17.327 9.635-23.291l409.245-409.245-409.246-409.246c-5.961-5.961-9.647-14.195-9.647-23.291 0-18.191 14.747-32.938 32.938-32.938 9.096 0 17.33 3.687 23.291 9.647v0l433.112 432.581c5.953 5.964 9.634 14.198 9.634 23.291s-3.681 17.327-9.635 23.291l0.001-0.001z" />
<glyph unicode="&#xe906;" glyph-name="envelope" horiz-adv-x="1592" d="M1526.452 960h-1460.852c-36.23 0-65.6-29.37-65.6-65.6v0-892.903c0.059-36.185 29.406-65.497 65.6-65.497 0 0 0 0 0 0h1460.645c36.23 0 65.6 29.37 65.6 65.6v0 892.903c-0.058 36.113-29.289 65.38-65.382 65.497h-0.011zM65.806 908.387h1460.645c6.266-0.048 11.555-4.179 13.341-9.861l0.027-0.1-743.794-464.516-743.794 464.516c1.777 5.826 7.076 10.002 13.361 10.064h0.007zM51.613 839.794l535.019-334.142-535.019-424.413zM1540.49 1.91c0-7.782-6.308-14.090-14.090-14.090v0h-1460.8c-7.737 0.059-13.987 6.344-13.987 14.090 0 0 0 0 0 0v0 13.729l581.368 459.355 149.368-93.419c3.894-2.481 8.639-3.955 13.729-3.955s9.836 1.474 13.834 4.017l-0.105-0.062 149.368 93.419 581.368-459.355zM1540.49 81.239l-536.413 423.226 536.413 332.439z" />
<glyph unicode="&#xe907;" glyph-name="event" horiz-adv-x="987" d="M897.047 846.226q-3.123 0-6.246 0h-78.423v67.441c-2.346 24.328-22.685 43.195-47.43 43.195-1.863 0-3.701-0.107-5.508-0.315l0.22 0.021h-72.28c-1.31 0.144-2.83 0.227-4.369 0.227-23.315 0-42.215-18.9-42.215-42.215 0-0.321 0.004-0.641 0.011-0.961l-0.001 0.048v-67.406h-294.268v67.406c0.006 0.268 0.010 0.583 0.010 0.899 0 23.315-18.9 42.215-42.215 42.215-1.49 0-2.962-0.077-4.413-0.228l0.181 0.015h-72.314c-1.628 0.197-3.512 0.31-5.423 0.31-24.751 0-45.093-18.876-47.416-43.017l-0.015-0.193v-67.406h-78.252c-0.808 0.026-1.759 0.041-2.712 0.041-49.188 0-89.229-39.165-90.638-88.012l-0.003-0.13q0-3.123 0-6.246v-708.282c-0.069-1.385-0.108-3.007-0.108-4.638 0-52.802 41.033-96.021 92.951-99.509l0.304-0.016h794.324c52.222 3.505 93.255 46.723 93.255 99.526 0 1.631-0.039 3.254-0.117 4.866l0.009-0.228v708.282c0.048 1.108 0.076 2.408 0.076 3.714 0 48.778-38.515 88.56-86.793 90.594l-0.184 0.006zM687.38 907.558h75.987v-134.813h-75.987zM227.822 907.558h69.843v-134.813h-69.877zM934.903 43.631c0.137-1.404 0.216-3.034 0.216-4.683 0-25.79-19.182-47.1-44.057-50.442l-0.261-0.029h-794.118c-25.153 3.355-44.352 24.673-44.352 50.475 0 1.647 0.078 3.276 0.231 4.883l-0.016-0.205v520.786h882.357v-520.786zM934.903 751.981v-138.622h-882.357v138.554c-0.108 1.126-0.17 2.434-0.17 3.756 0 23.011 18.654 41.666 41.666 41.666 0.929 0 1.851-0.030 2.765-0.090l-0.124 0.007h78.252v-26.976c2.043-26.155 23.77-46.605 50.273-46.605 0.908 0 1.81 0.024 2.706 0.071l-0.125-0.005h72.314c0.332-0.009 0.723-0.014 1.116-0.014 24.598 0 44.62 19.589 45.319 44.017l0.001 0.065q0 1.236 0 2.471v26.976h294.131v-26.976c-0.011-0.373-0.017-0.812-0.017-1.253 0-24.599 19.591-44.622 44.021-45.319l0.064-0.001h74.785c0.719-0.037 1.561-0.058 2.408-0.058 26.512 0 48.245 20.464 50.264 46.458l0.011 0.173v26.976h78.423c0.779 0.052 1.689 0.082 2.606 0.082 23.011 0 41.666-18.654 41.666-41.666 0-1.322-0.062-2.629-0.182-3.919l0.012 0.165zM374.682 229.925l-22.068-122.56c-0.211-1.209-0.332-2.602-0.332-4.022 0-13.534 10.971-24.505 24.505-24.505 4.149 0 8.057 1.031 11.482 2.851l-0.133-0.064 110.308 57.591 110.308-57.591 11.017-2.437c0.116-0.002 0.254-0.003 0.391-0.003 5.414 0 10.396 1.849 14.349 4.949l-0.051-0.038c6.13 4.509 10.063 11.694 10.063 19.797 0 1.225-0.090 2.429-0.263 3.606l0.016-0.133-22.068 122.56 89.475 85.802c4.453 4.792 7.186 11.236 7.186 18.319 0 2.644-0.381 5.199-1.091 7.613l0.048-0.191c-3.331 8.282-10.61 14.344-19.442 15.902l-0.155 0.023-122.56 18.396-55.154 111.509c-4.063 8.244-12.406 13.817-22.051 13.817s-17.989-5.572-21.987-13.673l-0.064-0.144-55.154-111.509-122.56-18.396c-8.988-1.581-16.267-7.643-19.536-15.752l-0.062-0.173c-0.659-2.221-1.039-4.773-1.039-7.413 0-7.085 2.731-13.531 7.198-18.345l-0.016 0.017zM442.088 329.181c7.818 1.204 14.2 6.368 17.107 13.342l0.054 0.146 39.229 78.423 39.229-78.423c2.96-7.12 9.342-12.284 17.037-13.472l0.123-0.016 87.004-12.253-62.498-60.062c-4.709-4.666-7.624-11.136-7.624-18.286 0-1.335 0.102-2.646 0.297-3.926l-0.018 0.143 14.689-87.004-77.222 41.666-11.017 2.437-11.017-2.437-77.222-41.666 14.689 87.004c0.178 1.137 0.279 2.448 0.279 3.783 0 7.15-2.915 13.619-7.622 18.284l-0.002 0.002-62.498 60.062z" />
<glyph unicode="&#xe908;" glyph-name="facebook" horiz-adv-x="486" d="M485.99 604.74h-178.108v129.98c0 39.868 41.233 49.118 60.484 49.118h115.063v175.445l-131.857 0.717c-179.951 0-221.013-130.799-221.013-214.699v-140.561h-130.56v-180.907h130.56v-487.834h177.323v488.107h150.63z" />
<glyph unicode="&#xe909;" glyph-name="filter" horiz-adv-x="1014" d="M385.179 476.14c10.287-11.207 16.591-26.213 16.591-42.691 0-0.012 0-0.024 0-0.036v0.002-465.642c-0.001-0.099-0.002-0.216-0.002-0.334 0-17.488 14.177-31.665 31.665-31.665 8.827 0 16.811 3.612 22.554 9.439l0.004 0.004 130.128 148.888c17.35 20.821 27.002 31.231 27.002 51.834v287.366c0.036 16.484 6.332 31.491 16.636 42.775l-0.045-0.049 372.166 404.482c7.765 8.413 12.526 19.7 12.526 32.098 0 26.153-21.187 47.358-47.333 47.388h-919.683c-0.017 0-0.036 0-0.056 0-26.172 0-47.388-21.216-47.388-47.388 0-12.399 4.762-23.685 12.556-32.131l-0.029 0.032z" />
<glyph unicode="&#xe90a;" glyph-name="google-plus" d="M600.085 927.776c19.145 10.299 35.526 20.979 50.935 32.858l-0.856-0.634h-332.816c-66.685 0-251.915-75.821-251.915-252.598s192.092-214.839 261.582-211.957c-10.461-13.479-16.769-30.635-16.769-49.265 0-26.249 12.525-49.573 31.924-64.322l0.199-0.145c20.851-22.481 16.605-29.456-8.378-29.456s-334.181-3.374-334.181-224.658 410.76-237.282 545.911-118.015 105.77 283.76 1.365 358.064-143.377 109.448-76.541 168.398 119.759 106.642 119.759 216.090c-1.731 68.76-36.912 128.949-89.822 165.098l-0.708 0.457c9.331-1.561 20.082-2.453 31.042-2.453 24.883 0 48.692 4.599 70.624 12.993l-1.354-0.455zM548.527 138.973c0-95.459-81.053-141.747-218.668-141.747s-211.578 68.732-211.578 171.204 100.273 153.045 288.12 153.045c51.065-39.275 142.126-86.967 142.126-182.501zM349.459 539.042c-165.745 0-240.921 387.256-45.948 387.256 151.718 5.649 265.866-387.256 45.948-387.256zM898.592 831.483v125.977h-65.054v-125.939h-127.379v-65.509h127.379v-126.166h65.054v126.166h125.105v65.358z" />
<glyph unicode="&#xe90b;" glyph-name="image" d="M1024 49.425v796.638c-0.019 62.786-50.805 113.704-113.539 113.937h-796.523c-62.887-0.097-113.84-51.050-113.937-113.928v-796.647c0.213-62.771 51.139-113.577 113.935-113.596h796.503c62.668 0.155 113.426 50.925 113.562 113.583v0.013zM312.798 362.564l142.234-170.906 199.202 256.171 256.171-341.333h-796.501z" />
<glyph unicode="&#xe90c;" glyph-name="info" d="M512 937.412c-270.295 0-489.412-219.117-489.412-489.412s219.117-489.412 489.412-489.412c270.295 0 489.412 219.117 489.412 489.412v0c-0.317 270.167-219.245 489.095-489.381 489.412h-0.030zM512 18.824c-237.028 0-429.176 192.149-429.176 429.176s192.149 429.176 429.176 429.176c237.028 0 429.176-192.149 429.176-429.176v0c-0.274-236.917-192.259-428.902-429.15-429.176h-0.026zM569.073 643.644c0-27.196-22.047-49.242-49.242-49.242s-49.242 22.047-49.242 49.242c0 27.196 22.047 49.242 49.242 49.242s49.242-22.047 49.242-49.242zM521.577 506.037c-16.261-0.009-29.44-13.193-29.44-29.455 0-0.011 0-0.021 0-0.032v0.002-250.202c0-16.259 13.181-29.44 29.44-29.44s29.44 13.181 29.44 29.44v250.202c0 0.013 0 0.029 0 0.045 0 16.259-13.181 29.44-29.44 29.44 0 0 0 0 0 0v0z" />
<glyph unicode="&#xe90d;" glyph-name="loading" d="M512.028 770.052c-0.272-0.005-0.592-0.009-0.913-0.009-26.874 0-48.66 21.786-48.66 48.66 0 0.321 0.003 0.641 0.009 0.961l-0.001-0.048v90.82c-0.018 0.499-0.028 1.085-0.028 1.673 0 27.373 22.191 49.564 49.564 49.564s49.564-22.191 49.564-49.564c0-0.588-0.010-1.175-0.031-1.758l0.002 0.085v-90.82c-0.064-27.328-22.184-49.468-49.498-49.564h-0.009zM512.028-64c-0.272-0.005-0.592-0.009-0.913-0.009-26.874 0-48.66 21.786-48.66 48.66 0 0.321 0.003 0.641 0.009 0.961l-0.001-0.048v90.82c0.928 26.644 22.751 47.89 49.536 47.89s48.607-21.247 49.533-47.806l0.002-0.085v-90.82c0.005-0.271 0.009-0.591 0.009-0.912 0-26.874-21.786-48.66-48.66-48.66-0.301 0-0.602 0.003-0.901 0.008l0.045-0.001zM325.358 720.545c-18.242 0.032-34.178 9.87-42.825 24.522l-0.127 0.232-44.591 77.652c-4.172 7.109-6.637 15.658-6.637 24.782 0 27.387 22.201 49.588 49.588 49.588 18.263 0 34.22-9.873 42.825-24.572l0.127-0.234 44.591-77.652c3.923-7.044 6.233-15.45 6.233-24.397 0-18.295-9.659-34.334-24.156-43.296l-0.218-0.126c-7.218-3.722-15.693-6.076-24.674-6.494l-0.136-0.005zM743.232-1.212c-18.242 0.032-34.178 9.87-42.825 24.522l-0.127 0.232-44.591 77.652c-4.172 7.109-6.637 15.658-6.637 24.782 0 27.387 22.201 49.588 49.588 49.588 18.263 0 34.22-9.873 42.825-24.572l0.127-0.234 44.591-77.652c3.923-7.044 6.233-15.45 6.233-24.397 0-18.295-9.659-34.334-24.156-43.296l-0.218-0.126c-6.79-4.091-14.987-6.511-23.75-6.511-0.373 0-0.745 0.004-1.115 0.013l0.055-0.001zM189.948 585.078c-0.24-0.004-0.523-0.007-0.807-0.007-8.842 0-17.109 2.461-24.154 6.736l0.207-0.117-77.652 44.591c-14.934 8.732-24.806 24.689-24.806 42.952 0 27.387 22.201 49.588 49.588 49.588 9.124 0 17.672-2.464 25.016-6.763l-0.234 0.127 77.652-44.591c14.715-9.087 24.374-25.126 24.374-43.422 0-8.946-2.31-17.353-6.365-24.657l0.132 0.26c-8.786-14.862-24.72-24.677-42.949-24.697h-0.003zM913.343 167.204c-0.24-0.004-0.523-0.007-0.807-0.007-8.842 0-17.109 2.461-24.154 6.736l-78.914 44.474c-14.934 8.732-24.806 24.689-24.806 42.952 0 27.387 22.201 49.588 49.588 49.588 9.124 0 17.672-2.464 25.016-6.763l-0.234 0.127 77.652-44.591c14.715-9.087 24.374-25.126 24.374-43.422 0-8.946-2.31-17.353-6.365-24.657l0.132 0.26c-7.638-14.782-22.808-24.713-40.298-24.713-0.416 0-0.832 0.006-1.245 0.017l0.061-0.001zM140.384 398.464h-90.82c-0.499-0.018-1.085-0.028-1.673-0.028-27.373 0-49.564 22.191-49.564 49.564s22.191 49.564 49.564 49.564c0.588 0 1.175-0.010 1.758-0.031l-0.085 0.002h90.82c0.272 0.005 0.592 0.009 0.913 0.009 26.874 0 48.66-21.786 48.66-48.66 0-0.321-0.003-0.641-0.009-0.961l0.001 0.048c-0.096-27.323-22.236-49.443-49.558-49.507h-0.006zM974.436 398.464h-90.82c-26.644 0.928-47.89 22.751-47.89 49.536s21.247 48.607 47.806 49.533l0.085 0.002h90.82c26.644-0.928 47.89-22.751 47.89-49.536s-21.247-48.607-47.806-49.533l-0.085-0.002zM110.657 167.204c-18.242 0.032-34.178 9.87-42.825 24.522l-0.127 0.232c-3.923 7.044-6.233 15.45-6.233 24.397 0 18.295 9.659 34.334 24.156 43.296l0.218 0.126 77.652 44.591c7.109 4.172 15.658 6.637 24.782 6.637 27.387 0 49.588-22.201 49.588-49.588 0-18.263-9.873-34.22-24.572-42.825l-0.234-0.127-77.652-44.591c-6.202-4.232-13.863-6.757-22.113-6.757-0.929 0-1.851 0.032-2.764 0.095l0.123-0.007zM834.052 585.078c-18.242 0.032-34.178 9.87-42.825 24.522l-0.127 0.232c-3.923 7.044-6.233 15.45-6.233 24.397 0 18.295 9.659 34.334 24.156 43.296l0.218 0.126 77.652 44.591c7.109 4.172 15.658 6.637 24.782 6.637 27.387 0 49.588-22.201 49.588-49.588 0-18.263-9.873-34.22-24.572-42.825l-0.234-0.127-77.652-44.591c-6.859-4.192-15.159-6.674-24.038-6.674-0.252 0-0.503 0.002-0.753 0.006h0.038zM280.768-1.212c-0.24-0.004-0.523-0.007-0.807-0.007-8.842 0-17.109 2.461-24.154 6.736l0.207-0.117c-14.715 9.087-24.374 25.126-24.374 43.422 0 8.946 2.31 17.353 6.365 24.657l-0.132-0.26 44.591 77.652c8.732 14.934 24.689 24.806 42.952 24.806 27.387 0 49.588-22.201 49.588-49.588 0-9.124-2.464-17.672-6.763-25.016l0.127 0.234-44.591-77.652c-8.757-14.945-24.724-24.831-43.003-24.867h-0.005zM698.642 720.545c-0.24-0.004-0.523-0.007-0.807-0.007-8.842 0-17.109 2.461-24.154 6.736l0.207-0.117c-14.715 9.087-24.374 25.126-24.374 43.422 0 8.946 2.31 17.353 6.365 24.657l-0.132-0.26 44.591 77.652c8.732 14.934 24.689 24.806 42.952 24.806 27.387 0 49.588-22.201 49.588-49.588 0-9.124-2.464-17.672-6.763-25.016l0.127 0.234-44.591-77.652c-9.26-14.441-24.929-24.071-42.895-24.863l-0.113-0.004z" />
<glyph unicode="&#xe90e;" glyph-name="lock" horiz-adv-x="816" d="M696.017 583.983h-424.217v164.476c2.641 73.078 62.519 131.317 136 131.317s133.359-58.239 135.993-131.076l0.007-0.241v-76.459h80.167v76.459c-2.607 117.303-98.315 211.397-216 211.397s-213.393-94.095-215.996-211.155l-0.004-0.242v-164.476h-71.95c-66.218-0.133-119.865-53.768-120.017-119.969v-408.032c0.133-66.23 53.787-119.884 120.004-120.017h576.013c66.23 0.133 119.884 53.787 120.017 120.004v408.030c-0.152 66.216-53.798 119.851-120.004 119.983h-0.013zM736.1 55.983c0-22.138-17.946-40.084-40.084-40.084h-576c-22.138 0-40.084 17.946-40.084 40.084v0 408.017c0 22.138 17.946 40.084 40.084 40.084v0h576c22.138 0 40.084-17.946 40.084-40.084v0z" />
<glyph unicode="&#xe90f;" glyph-name="logout" d="M661.352 192.141h-42.663c-11.79 0-21.348-9.558-21.348-21.348v0-149.335h-512.017v853.218h512.017v-149.335c0-11.79 9.558-21.348 21.348-21.348v0h42.663c11.79 0 21.348 9.558 21.348 21.348v0 149.335c0 47.124-38.201 85.325-85.325 85.325-0.012 0-0.023 0-0.035 0h-512.015c-47.124 0-85.325-38.201-85.325-85.325v0-853.383c0-47.124 38.201-85.325 85.325-85.325h512.017c47.124 0 85.325 38.201 85.325 85.325v0 149.369c0 0.039 0 0.086 0 0.132 0 11.779-9.539 21.329-21.313 21.348h-0.002zM1017.248 463.705l-256.008 234.66c-3.782 3.463-8.842 5.586-14.397 5.586-11.776 0-21.325-9.534-21.348-21.305v-42.665c0-0.005 0-0.010 0-0.016 0-6.277 2.713-11.92 7.031-15.821l0.019-0.017 148.309-133.482h-603.365c-0.010 0-0.021 0-0.033 0-11.772 0-21.315-9.543-21.315-21.315 0-0.012 0-0.023 0-0.035v0.002-42.663c0-0.010 0-0.021 0-0.033 0-11.772 9.543-21.315 21.315-21.315 0.012 0 0.023 0 0.035 0h603.363l-148.309-133.482c-4.336-3.917-7.050-9.56-7.050-15.838 0-0.006 0-0.011 0-0.017v0.001-42.663c0-0.004 0-0.008 0-0.012 0-8.67 5.177-16.131 12.607-19.461l0.135-0.054c2.516-1.15 5.458-1.82 8.556-1.82 0.006 0 0.012 0 0.017 0h-0.001c5.567 0 10.639 2.125 14.447 5.608l-0.016-0.015 256.008 234.859c4.262 3.916 6.924 9.516 6.924 15.738s-2.662 11.822-6.908 15.724l-0.015 0.014z" />
<glyph unicode="&#xe910;" glyph-name="minus1" d="M874.028 809.99c-92.22 90.175-218.538 145.813-357.851 145.813-282.78 0-512.019-229.239-512.019-512.019 0-139.313 55.638-265.63 145.906-357.945l-0.092 0.095c92.22-90.175 218.538-145.813 357.851-145.813 282.78 0 512.019 229.239 512.019 512.019 0 139.313-55.638 265.63-145.906 357.945l0.092-0.095zM511.981 15.947c-238.585 0-431.996 193.411-431.996 431.996s193.411 431.996 431.996 431.996c238.585 0 431.996-193.411 431.996-431.996v0c-0.284-238.47-193.526-431.711-431.968-431.996h-0.027zM551.973 487.973h180.005v-79.985h-439.994v79.985h259.99z" />
<glyph unicode="&#xe911;" glyph-name="phone" d="M791.433 89.872c-0.384-1.641-0.967-3.478-1.7-5.291-4.103-10.156-12.094-17.574-21.563-21.234l-0.027-0.010-143.918-60.443c-7.229-3.363-15.037-5.343-23.044-5.78l-0.415-0.006c-7.689-0.663-16.075-0.101-24.374 1.826l-0.446 0.116q-0.78 0.315-4.796 1.471t-10.201 3.681c-17.051 7.674-32.677 16.076-47.502 25.396l2.029-1.193c-28.035 17.91-51.503 37.348-72.265 59.003l1.91-1.838c-34.133 34.949-61.565 69.005-85.693 105.101l1.735-2.451c-34.775 52.248-62.357 104.788-84.38 159.586l-0.143 0.358c-19.449 43.957-35.359 89.12-47.676 135.344l-0.687 2.811c-9.047 33.885-16.1 70.961-20.449 108.511l-0.362 4.571c-3.123 25.714-4.114 54.888-2.605 84.193l0.353 3.82c0.868 18.311 3.668 39.837 8.172 61.278l0.616 2.552c2.195 11.138 5.866 23.486 10.777 35.64 0.556 1.377 1.126 2.744 1.708 4.102l-0.086-0.203q6.374 13.596 6.995 15.133c4.607 7.71 10.028 14.132 16.215 19.554l-0.371-0.351c6.169 5.75 13.017 9.992 20.412 12.838l0.046 0.017 144.264 61.236c8.871 4.121 19.324 4.714 29.088 0.817l0.008-0.003c0.147-0.056 0.321-0.125 0.494-0.195 6.538-2.642 11.688-7.256 15.039-12.88l-0.050 0.081c3.605-6.049 6.056-12.543 7.311-19.313l0.042-0.269 19.304-190.193c0.903-6.543 0.13-13.636-2.612-20.422-1.23-3.045-2.788-5.859-4.617-8.418l0.156 0.235c-5.881-8.941-13.934-15.488-23.107-19.407l0.003 0.001-53.176-22.572c-1.781-0.901-3.389-2.205-4.662-3.842l-0.059-0.082c-1.342-1.448-2.559-3.258-3.481-5.285l-0.017-0.039c-2.512-15.292-2.702-29.621-0.941-43.592l-0.077 0.854c2.207-21.037 5.713-39.646 10.604-57.843l-0.275 1.113c8.051-29.583 17.927-56.903 29.912-83.277l0.131-0.285c10.853-27.401 23.725-53.658 38.613-78.788l0.874-1.411c9.061-15.241 19.958-30.804 32.001-45.536l1.479-1.681c6.16-7.75 13.865-15.293 22.541-21.841l0.763-0.532 8.864-5.836c1.911-0.58 3.778-0.857 5.623-0.874l-0.143 0.007c2.161-0.234 4.216 0.016 6.122 0.677l-0.020-0.007 62.125 27.016c11.479 4.283 24.588 4.453 36.896-0.52 0.19-0.077 0.378-0.154 0.567-0.233l-0.029 0.012c0.604-0.208 1.304-0.47 2.001-0.752 6.904-2.79 12.703-7.149 17.152-12.5l-0.173 0.193 0.78-0.315 113.508-148.305c7.479-9.259 10.832-21.185 8.966-33.017l-0.055-0.283z" />
<glyph unicode="&#xe912;" glyph-name="plus1" d="M874.028 809.99c-92.22 90.175-218.538 145.813-357.851 145.813-282.78 0-512.019-229.239-512.019-512.019 0-139.313 55.638-265.63 145.906-357.945l-0.092 0.095c92.22-90.175 218.538-145.813 357.851-145.813 282.78 0 512.019 229.239 512.019 512.019 0 139.313-55.638 265.63-145.906 357.945l0.092-0.095zM511.981 15.947c-238.585 0-431.996 193.411-431.996 431.996s193.411 431.996 431.996 431.996c238.585 0 431.996-193.411 431.996-431.996v0c-0.284-238.47-193.526-431.711-431.968-431.996h-0.027zM551.973 487.973h180.005v-79.985h-180.005v-180.005h-79.985v180.005h-180.005v79.985h180.005v180.043h79.985z" />
<glyph unicode="&#xe913;" glyph-name="question-mark" d="M561.99 203.013c0-27.609-22.381-49.99-49.99-49.99s-49.99 22.381-49.99 49.99c0 27.609 22.381 49.99 49.99 49.99s49.99-22.381 49.99-49.99zM512 960c-282.77 0-512-229.23-512-512s229.23-512 512-512c282.77 0 512 229.23 512 512v0c0 0.077 0 0.168 0 0.26 0 282.626-229.114 511.74-511.74 511.74-0.091 0-0.182 0-0.273 0h0.014zM512 15.997c-238.589 0-432.003 193.414-432.003 432.003s193.414 432.003 432.003 432.003c238.589 0 432.003-193.414 432.003-432.003v0c0-0.068 0-0.147 0-0.227 0-238.463-193.313-431.776-431.776-431.776-0.080 0-0.16 0-0.24 0h0.013zM512 703.011c-88.318-0.111-159.883-71.676-159.994-159.983v-0.011c0-22.091 17.908-39.998 39.998-39.998s39.998 17.908 39.998 39.998v0c0 44.181 35.816 79.997 79.997 79.997s79.997-35.816 79.997-79.997c0-44.181-35.816-79.997-79.997-79.997v0c-22.091 0-39.998-17.908-39.998-39.998v0-100.012c0-22.091 17.908-39.998 39.998-39.998s39.998 17.908 39.998 39.998v0 65.075c69.484 18.462 119.85 80.799 119.85 154.901 0 88.318-71.545 159.925-159.839 160.026h-0.010z" />
<glyph unicode="&#xe914;" glyph-name="register" horiz-adv-x="1026" d="M511.983 959.967c-0.021 0-0.046 0-0.071 0-163.425 0-295.907-132.482-295.907-295.907 0-100.863 50.464-189.939 127.522-243.358l0.98-0.643c-202.152-71.741-344.349-261.274-344.506-484.040v-0.020h80.164c0.266 238.42 193.414 431.639 431.782 432.019h0.037c161.556 2.504 291.56 134.057 291.56 295.974s-130.004 293.469-291.325 295.971l-0.235 0.003zM511.983 447.983c-119.299 0-216.010 96.711-216.010 216.010s96.711 216.010 216.010 216.010c119.299 0 216.010-96.711 216.010-216.010v0c-0.152-119.231-96.776-215.843-215.997-215.976h-0.013zM857.993 184.009v168.011h-80.164v-168.011h-168.011v-80.164h168.011v-168.011h80.164v168.011h168.011v80.164z" />
<glyph unicode="&#xe915;" glyph-name="sand-clock" horiz-adv-x="969" d="M616.958 475.144c20.758 13.136 32.682 36.019 31.798 59.913l-0.038 0.494-0.296 78.171 10.703 0.051c0.902-0.003 1.886 0.154 2.852 0.487 3.675 1.265 5.994 4.688 6.028 8.365l-0.002 0.065-0.169 41.917c0.003 0.902-0.154 1.886-0.487 2.852-1.265 3.675-4.688 5.994-8.365 6.028l-0.065-0.002-344.602-1.361c-0.876-0.005-1.832-0.162-2.771-0.486-3.666-1.262-5.982-4.672-6.027-8.338l0.002-0.065 0.169-41.917c-0.003-0.902 0.154-1.886 0.487-2.852 1.265-3.675 4.688-5.994 8.365-6.028l0.065 0.002 10.703 0.051 0.16-79.625c-1.41-8.354-0.781-17.503 2.283-26.401 5.149-14.954 16.15-26.23 29.561-32.15l0.044-0.019 88.153-53.234 0.047-22.698c-22.090-13.421-79.842-48.479-87.369-53.797-20.742-13.191-32.624-36.127-31.663-60.048l0.039-0.494 0.432-67.221-10.703-0.051c-0.902 0.003-1.886-0.154-2.852-0.487-3.675-1.265-5.994-4.688-6.028-8.365l0.002-0.065-0.036-41.851c-0.003-0.902 0.154-1.886 0.487-2.852 1.265-3.675 4.688-5.994 8.365-6.028l0.065 0.002 344.521 1.333c0.955-0.021 1.995 0.135 3.016 0.486 3.648 1.256 5.96 4.639 6.026 8.286l-0.001 0.065-0.169 41.917c0.003 0.902-0.154 1.886-0.487 2.852-1.265 3.675-4.688 5.994-8.365 6.028l-0.065-0.002-10.703-0.051-0.27 68.73c1.367 8.29 0.723 17.363-2.317 26.191-5.174 15.025-16.255 26.337-29.753 32.234l-0.048 0.021-87.99 53.29-0.047 22.698c22.048 13.543 79.731 48.669 87.313 53.959zM505.412 375.726l95.832-57.858c4.86-2.293 9.266-5.514 12.937-9.526l0.185-0.22c0.329-0.784 0.682-1.71 1.007-2.654 2.197-6.381 2.907-12.914 2.314-19.222l0.017 0.311 0.216-68.704-259.057-0.979-0.432 67.221c-0.927 13.908 6.022 27.090 17.987 34.002l0.204 0.109c6.030 4.257 59.081 36.606 93.298 57.292 4.833 2.964 7.694 8.141 7.72 13.624l-0.004 0.117-0.118 40.845c0.009 1.627-0.273 3.401-0.873 5.143-1.277 3.707-3.778 6.645-6.896 8.517l0.027-0.017-95.753 58.022c-4.846 2.299-9.239 5.524-12.897 9.539l-0.185 0.22c-0.329 0.784-0.682 1.71-1.007 2.654-2.197 6.381-2.907 12.914-2.314 19.222l-0.017-0.311-0.16 79.625 259.097 0.993 0.188-78.253c0.93-13.896-6.003-27.068-17.946-33.987l-0.205-0.11c-6.030-4.257-59.081-36.606-93.298-57.292-4.833-2.964-7.694-8.141-7.72-13.624l0.004-0.117 0.118-40.845c-0.020-1.66 0.261-3.47 0.873-5.246 1.275-3.702 3.771-6.637 6.883-8.509l-0.027 0.017zM685.358 66.534c-7.173-4.038-14.561-7.946-21.949-11.554q-1.804-0.859-3.479-1.933c-1.456-0.502-2.62-0.981-3.753-1.515l0.23 0.098c-28.86-13.843-62.381-24.802-97.494-31.199l-2.458-0.372h-1.332c-8.118-1.417-16.365-2.62-24.569-3.565h-0.258c-13.625-1.586-29.412-2.491-45.41-2.491-0.042 0-0.085 0-0.127 0h0.006c-176.067 0.211-325.953 112.075-382.672 268.584l-0.898 2.836c-0.859 2.405-1.675 4.811-2.491 7.216-13.134 38.259-20.717 82.34-20.717 128.193s7.583 89.935 21.563 131.060l-0.846-2.866 0.859 2.62q1.203 3.522 2.491 7.044l1.203 3.264c47.779 125.486 152.072 219.788 280.918 252.808l2.83 0.615h0.258l5.842 1.417h0.644c26.694 6.486 57.401 10.324 88.965 10.565l0.163 0.001 0.344-41.836c0-12.886 8.29-16.752 18.212-8.333l88.311 74.867c4.44 3.507 7.263 8.891 7.263 14.934 0 6.158-2.931 11.63-7.475 15.099l-0.046 0.034-89.729 73.536c-10.051 8.204-18.169 4.295-18.040-8.591l0.344-41.75c-132.878-0.342-253.050-54.459-339.957-141.728l-0.016-0.017q-13.444-13.444-25.772-27.705v0l-0.902-1.074c-68.929-80.313-111.922-184.652-115.014-298.948l-0.014-0.649c0-0.859 0-1.718 0-2.62 0-3.694 0-7.474 0-11.211 0-6.099 0-12.285 0.344-18.384 0-0.73 0-1.417 0-2.105 4.145-104.848 41.276-200.285 101.223-277.036l-0.799 1.063 0.601-0.816c6.013-7.732 12.328-15.42 18.813-22.765 0.43-0.472 0.859-0.902 1.289-1.332q9.836-11.082 20.403-21.691c68.64-69.015 158.050-117.309 258.065-134.716l2.875-0.414h1.546c24.119-4.204 51.895-6.61 80.232-6.615h0.005c0.334-0.001 0.729-0.001 1.124-0.001 73.866 0 143.84 16.663 206.369 46.434l-2.907-1.246c1.57 0.741 2.865 1.457 4.112 2.242l-0.16-0.094c1.724 0.587 3.143 1.183 4.515 1.859l-0.22-0.098c8.805 4.295 17.654 8.934 26.158 13.788 11.89 6.825 19.77 19.448 19.77 33.911 0 21.522-17.447 38.97-38.97 38.97-7.059 0-13.679-1.877-19.389-5.158l0.189 0.1zM822.55 647.56c7.097-10.455 18.929-17.234 32.344-17.234 21.521 0 38.968 17.446 38.968 38.968 0 8.106-2.475 15.635-6.711 21.87l0.087-0.136c-5.498 8.161-11.254 16.236-17.181 24.011-7.147 9.993-18.714 16.429-31.784 16.429-21.516 0-38.958-17.442-38.958-38.958 0-9.415 3.34-18.050 8.9-24.785l-0.053 0.066c4.94-6.658 9.793-13.444 14.389-20.231zM871.86 545.16c2.491-7.817 4.811-15.85 6.83-23.839 4.439-17.010 19.666-29.362 37.777-29.362 21.53 0 38.983 17.453 38.983 38.983 0 3.418-0.44 6.734-1.266 9.893l0.060-0.271c-2.448 9.536-5.154 19.071-8.161 28.392-5.184 15.845-19.835 27.089-37.111 27.089-21.52 0-38.965-17.445-38.965-38.965 0-4.243 0.678-8.328 1.932-12.152l-0.078 0.275zM847.205 158.325c-6.791 5.903-15.723 9.5-25.495 9.5-11.759 0-22.301-5.21-29.444-13.447l-0.041-0.048c-5.369-6.228-11.039-12.37-16.795-18.255-6.854-7.022-11.082-16.633-11.082-27.232 0-21.54 17.461-39.001 39.001-39.001 10.941 0 20.829 4.505 27.912 11.761l0.008 0.008c6.83 7.001 13.573 14.303 19.973 21.734 5.881 6.791 9.464 15.711 9.464 25.469 0 11.768-5.212 22.319-13.454 29.47l-0.048 0.041zM931.565 445.981c-0.351 0.011-0.763 0.018-1.176 0.018-21.115 0-38.306-16.797-38.94-37.758l-0.001-0.058c-0.258-8.247-0.73-16.58-1.503-24.784-0.106-1.078-0.166-2.33-0.166-3.596 0-20.274 15.487-36.931 35.276-38.787l0.155-0.012c1.203 0 2.405 0 3.608 0 20.203 0.073 36.777 15.513 38.646 35.237l0.012 0.156c0.902 9.793 1.503 19.715 1.804 29.552 0.009 0.313 0.014 0.682 0.014 1.052 0 21.092-16.742 38.273-37.662 38.979l-0.065 0.002zM914.255 294.872c-4.217 1.703-9.108 2.692-14.23 2.692-16.41 0-30.45-10.146-36.19-24.507l-0.093-0.263c-3.007-7.646-6.271-15.334-9.75-22.851-2.28-4.805-3.611-10.44-3.611-16.387 0-21.53 17.453-38.983 38.983-38.983 15.584 0 29.031 9.144 35.271 22.359l0.101 0.237c4.295 8.891 8.032 18.040 11.597 27.189 1.703 4.217 2.692 9.108 2.692 14.23 0 16.41-10.146 30.45-24.507 36.19l-0.263 0.093zM781.487 755.544c4.783 6.396 7.659 14.46 7.659 23.197 0 12.787-6.16 24.134-15.674 31.238l-0.103 0.073c-7.86 5.842-16.064 11.511-24.268 16.838-5.993 3.948-13.342 6.298-21.24 6.298-21.519 0-38.964-17.445-38.964-38.964 0-13.621 6.989-25.61 17.577-32.575l0.147-0.091c6.915-4.295 13.788-9.235 20.403-14.174 6.396-4.783 14.46-7.659 23.197-7.659 12.787 0 24.134 6.16 31.238 15.674l0.073 0.103z" />
<glyph unicode="&#xe916;" glyph-name="search" d="M676.395 253.44l317.44-317.44 30.165 30.165-317.44 317.44c64.725 71.808 104.107 166.869 104.107 271.061 0 223.701-181.632 405.333-405.333 405.333s-405.333-181.632-405.333-405.333c0-223.701 181.632-405.333 405.333-405.333 104.192 0 199.253 39.381 271.061 104.107zM405.333 917.333c200.149 0 362.667-162.517 362.667-362.667s-162.517-362.667-362.667-362.667-362.667 162.517-362.667 362.667 162.517 362.667 362.667 362.667z" />
<glyph unicode="&#xe917;" glyph-name="stopwatch" horiz-adv-x="841" d="M746.082 617.612l42.837 42.837c10.78 10.78 17.448 25.673 17.448 42.123 0 32.9-26.671 59.571-59.571 59.571-16.45 0-31.343-6.668-42.123-17.448l-45.645-45.645c-45.141 31.731-98.573 55.109-156.295 66.577l-2.654 0.44v59.306h39.72c0.007 0 0.015 0 0.024 0 10.962 0 19.848 8.886 19.848 19.848 0 0.008 0 0.017 0 0.025v-0.001 51.714c-0.081 32.826-26.67 59.415-59.488 59.496h-158.982c-32.826-0.081-59.415-26.67-59.496-59.488v-51.651c0-0.007 0-0.015 0-0.024 0-10.962 8.886-19.848 19.848-19.848 0.008 0 0.017 0 0.025 0h39.718v-59.377c-60.324-11.968-113.696-35.382-160.11-68.020l1.327 0.885-45.669 45.717c-10.78 10.78-25.673 17.448-42.123 17.448-32.9 0-59.571-26.671-59.571-59.571 0-16.45 6.668-31.343 17.448-42.123l42.837-42.837c-57.13-70.768-91.707-161.813-91.707-260.933 0-230.34 186.728-417.068 417.068-417.068s417.068 186.728 417.068 417.068c0 99.12-34.578 190.165-92.328 261.729l0.621-0.795zM732.659 716.542c3.593 3.593 8.558 5.816 14.041 5.816 10.967 0 19.857-8.89 19.857-19.857 0-5.483-2.223-10.448-5.816-14.041v0l-41.029-41.029q-13.875 14.279-29.034 27.13zM321.327 896.958c0 10.975 8.897 19.872 19.872 19.872v0h158.878c0.014 0 0.031 0 0.048 0 10.975 0 19.872-8.897 19.872-19.872 0 0 0 0 0 0v0-31.866h-198.67zM460.357 825.563v-53.713c-11.906 1.178-25.734 1.85-39.72 1.85s-27.814-0.672-41.455-1.985l1.735 0.135v53.523zM80.605 716.542c3.598 3.584 8.561 5.8 14.041 5.8s10.443-2.216 14.042-5.801l41.979-42.003q-15.136-12.851-29.034-27.13l-41.029 41.052c-3.584 3.598-5.8 8.561-5.8 14.041s2.216 10.443 5.801 14.042l-0.001-0.001zM420.638-20.687c-208.404 0.035-377.336 168.987-377.336 377.396 0 188.419 138.079 344.587 318.568 372.838l2.127 0.274c17.019 2.676 36.645 4.205 56.628 4.205s39.61-1.529 58.769-4.475l-2.14 0.271c65.563-10.185 123.762-35.913 172.56-73.296l-0.902 0.664c20.496-15.701 38.583-32.596 54.903-51.087l0.357-0.412c58.254-66.086 93.811-153.392 93.811-249.003 0-208.407-168.94-377.357-377.344-377.372h-0.002zM420.638-20.687M420.566 297.094c0.155-0.001 0.339-0.002 0.522-0.002 32.859 0 59.496 26.637 59.496 59.496 0 25.93-16.587 47.985-39.73 56.134l-0.417 0.128v142.434c-0.381 10.675-9.127 19.184-19.86 19.184s-19.479-8.509-19.859-19.149l-0.001-0.035v-142.434c-23.559-8.277-40.147-30.332-40.147-56.262 0-32.859 26.637-59.496 59.496-59.496 0.184 0 0.367 0.001 0.55 0.002h-0.028zM420.566 376.533c10.975 0 19.872-8.897 19.872-19.872s-8.897-19.872-19.872-19.872c-10.975 0-19.872 8.897-19.872 19.872v0c0 10.975 8.897 19.872 19.872 19.872v0zM420.566 376.533M632.23 566.207c-0.309 0.357-0.619 0.738-0.976 1.071s-0.762 0.714-1.166 1.071c-34.002 33.665-76.078 59.238-123.062 73.553l-2.118 0.555c-1.685 0.517-3.622 0.815-5.628 0.815-10.965 0-19.853-8.889-19.853-19.853 0-8.958 5.933-16.531 14.084-19.002l0.141-0.037c36.633-11.086 68.321-28.826 95.196-51.997l-0.336 0.283-13.399-13.399c-3.923-3.641-6.369-8.824-6.369-14.58 0-10.975 8.897-19.872 19.872-19.872 5.755 0 10.939 2.447 14.568 6.357l0.012 0.013 13.422 13.422c34.546-39.844 57.056-90.965 61.393-147.177l0.054-0.873h-19.039c-10.675-0.381-19.184-9.127-19.184-19.86s8.509-19.479 19.149-19.859l0.035-0.001h19.039c-4.39-57.086-26.9-108.207-61.718-148.369l0.27 0.318-13.422 13.422c-3.641 3.923-8.824 6.369-14.58 6.369-10.975 0-19.872-8.897-19.872-19.872 0-5.755 2.447-10.939 6.357-14.568l0.013-0.012 13.422-13.422c-39.845-34.543-90.965-57.052-147.176-61.393l-0.874-0.054v19.039c0.008 0.205 0.012 0.446 0.012 0.688 0 10.975-8.897 19.872-19.872 19.872s-19.872-8.897-19.872-19.872c0-0.242 0.004-0.483 0.013-0.722l-0.001 0.035v-19.039c-57.086 4.392-108.206 26.902-148.369 61.718l0.319-0.27 13.422 13.422c3.923 3.641 6.369 8.824 6.369 14.58 0 10.975-8.897 19.872-19.872 19.872-5.755 0-10.939-2.447-14.568-6.357l-0.012-0.013-13.422-13.422c-34.546 39.844-57.056 90.965-61.393 147.177l-0.054 0.873h19.039c0.205-0.008 0.446-0.012 0.688-0.012 10.975 0 19.872 8.897 19.872 19.872s-8.897 19.872-19.872 19.872c-0.242 0-0.483-0.004-0.722-0.013l0.035 0.001h-19.039c4.392 57.086 26.902 108.206 61.718 148.369l-0.27-0.319 13.422-13.422c3.533-3.28 8.283-5.292 13.502-5.292 10.975 0 19.872 8.897 19.872 19.872 0 5.219-2.012 9.969-5.303 13.515l0.012-0.013-13.399 13.399c26.538 22.891 58.227 40.632 93.028 51.234l1.832 0.48c8.292 2.508 14.225 10.081 14.225 19.039 0 10.965-8.889 19.853-19.853 19.853-2.006 0-3.943-0.298-5.769-0.851l0.141 0.037c-49.092-14.863-91.161-40.428-125.181-74.109l0.025 0.024c-0.405-0.357-0.809-0.714-1.19-1.095s-0.643-0.69-0.952-1.047c-53.354-53.752-86.328-127.798-86.328-209.545s32.974-155.793 86.346-209.564l-0.018 0.018c0.309-0.357 0.619-0.738 0.976-1.071s0.69-0.643 1.047-0.952c53.751-53.347 127.792-86.316 209.534-86.316s155.783 32.969 209.552 86.334l-0.018-0.018c0.357 0.309 0.738 0.619 1.071 0.976s0.643 0.69 0.952 1.047c53.354 53.752 86.328 127.798 86.328 209.545s-32.974 155.793-86.346 209.564l0.018-0.018zM632.23 566.207M420.662 614.851c0.007 0 0.015 0 0.024 0 10.975 0 19.872 8.897 19.872 19.872s-8.897 19.872-19.872 19.872c-10.975 0-19.872-8.897-19.872-19.872v0c0-10.966 8.883-19.858 19.847-19.872h0.001zM420.662 614.851" />
<glyph unicode="&#xe918;" glyph-name="trash" horiz-adv-x="942" d="M916.944 770.814c-3.605 3.58-8.572 5.793-14.056 5.793-0.241 0-0.481-0.004-0.72-0.013l0.035 0.001h-198.337l-44.913 107.209c-7.295 16.948-19.182 30.758-34.099 40.219l-0.361 0.214c-14.128 10.119-31.671 16.317-50.642 16.693l-0.091 0.001h-205.344c-19.049-0.378-36.579-6.575-50.968-16.88l0.273 0.186c-15.34-9.667-27.288-23.476-34.429-39.861l-0.222-0.572-44.913-107.209h-198.299c-0.233 0.010-0.506 0.015-0.781 0.015-10.912 0-19.757-8.846-19.757-19.757 0-0.275 0.006-0.548 0.017-0.82l-0.001 0.039v-41.084c-0.010-0.233-0.015-0.506-0.015-0.781 0-10.912 8.846-19.757 19.757-19.757 0.275 0 0.548 0.006 0.82 0.017l-0.039-0.001h61.607v-610.939c-0.033-1.145-0.053-2.491-0.053-3.842 0-32.981 11.371-63.305 30.407-87.268l-0.221 0.288c16.448-22.646 42.749-37.269 72.479-37.523h533.98c30.003 0.443 56.382 15.567 72.326 38.493l0.194 0.294c18.844 24.348 30.206 55.316 30.206 88.938 0 1.12-0.013 2.237-0.038 3.351l0.003-0.166v608.335h61.607c0.222-0.009 0.482-0.014 0.743-0.014 10.912 0 19.757 8.846 19.757 19.757 0 0.274-0.006 0.547-0.017 0.819l0.001-0.039v41.084c0.007 0.193 0.010 0.419 0.010 0.646 0 5.508-2.211 10.5-5.794 14.136l0.002-0.002zM358.653 851.642c2.599 3.545 6.38 6.090 10.753 7.061l0.121 0.023h203.468c4.497-0.986 8.28-3.533 10.838-7.032l0.036-0.051 30.631-75.085h-287.474zM758.466 85.863c0.002-0.223 0.004-0.486 0.004-0.75 0-9.066-1.658-17.744-4.688-25.749l0.166 0.5c-2.242-6.629-5.403-12.372-9.396-17.428l0.092 0.121c-3.216-3.829-5.437-5.475-6.739-5.475h-533.94c-1.264 0-3.523 1.8-6.739 5.475-3.901 4.935-7.062 10.678-9.184 16.902l-0.12 0.404c-2.817 7.447-4.448 16.057-4.448 25.047 0 0.334 0.002 0.668 0.007 1.002l-0.001-0.051v608.565h574.985zM758.466 85.863M286.095 160.488h41.084c0.233-0.010 0.506-0.015 0.781-0.015 10.912 0 19.757 8.846 19.757 19.757 0 0.275-0.006 0.548-0.017 0.82l0.001-0.039v369.757c0.010 0.233 0.015 0.506 0.015 0.781 0 10.912-8.846 19.757-19.757 19.757-0.275 0-0.548-0.006-0.82-0.017l0.039 0.001h-41.084c-0.233 0.010-0.506 0.015-0.781 0.015-10.912 0-19.757-8.846-19.757-19.757 0-0.275 0.006-0.548 0.017-0.82l-0.001 0.039v-369.642c-0.010-0.233-0.015-0.506-0.015-0.781 0-10.912 8.846-19.757 19.757-19.757 0.275 0 0.548 0.006 0.82 0.017l-0.039-0.001zM286.095 160.488M450.393 160.488h41.084c0.222-0.009 0.482-0.014 0.743-0.014 10.912 0 19.757 8.846 19.757 19.757 0 0.274-0.006 0.547-0.017 0.819l0.001-0.039v369.757c0.010 0.233 0.015 0.506 0.015 0.78 0 10.912-8.846 19.757-19.757 19.757-0.261 0-0.521-0.005-0.78-0.015l0.037 0.001h-41.084c-0.233 0.010-0.506 0.015-0.781 0.015-10.912 0-19.757-8.846-19.757-19.757 0-0.275 0.006-0.548 0.017-0.82l-0.001 0.039v-369.642c-0.010-0.233-0.015-0.506-0.015-0.781 0-10.912 8.846-19.757 19.757-19.757 0.275 0 0.548 0.006 0.82 0.017l-0.039-0.001zM450.393 160.488M614.653 160.488h41.084c0.233-0.010 0.506-0.015 0.781-0.015 10.912 0 19.757 8.846 19.757 19.757 0 0.275-0.006 0.548-0.017 0.82l0.001-0.039v369.757c0.010 0.233 0.015 0.506 0.015 0.781 0 10.912-8.846 19.757-19.757 19.757-0.275 0-0.548-0.006-0.82-0.017l0.039 0.001h-41.084c-0.209 0.008-0.455 0.012-0.702 0.012-10.954 0-19.834-8.88-19.834-19.834 0-0.247 0.005-0.492 0.013-0.737l-0.001 0.035v-369.642c-0.009-0.221-0.014-0.481-0.014-0.741 0-10.933 8.863-19.795 19.795-19.795 0.261 0 0.52 0.005 0.779 0.015l-0.037-0.001zM614.653 160.488" />
<glyph unicode="&#xe919;" glyph-name="twitter" horiz-adv-x="1170" d="M1170.266 836.933c-38.881-20.296-84.153-34.74-132.050-40.744l-1.969-0.201c47.175 34.677 82.451 83.081 100.126 139.285l0.527 1.944c-42.871-28.574-93.746-48.828-148.535-57.183l-2.075-0.26c-42.635 49.017-104.957 79.956-174.515 80.411h-0.080c-134.538-5.351-241.578-115.714-241.578-251.076 0-3.137 0.057-6.261 0.171-9.37l-0.013 0.449c0.013-20.52 2.268-40.506 6.533-59.736l-0.341 1.83c-209.085 9.824-392.27 112.779-510.176 268.023l-1.223 1.679c-20.263-37.157-32.178-81.384-32.178-128.393 0-87.205 41.001-164.833 104.778-214.659l0.602-0.453c-4.839-0.564-10.445-0.886-16.126-0.886-33.733 0-64.814 11.351-89.633 30.442l0.347-0.256c-0.232-4.016-0.364-8.714-0.364-13.442 0-115.265 78.451-212.206 184.871-240.343l1.734-0.39c-18.942-7.583-40.899-11.981-63.883-11.981-12.974 0-25.621 1.401-37.797 4.061l1.166-0.214c25.021-99.069 111.274-171.996 215.281-176.565l0.49-0.017c-68.75-69.974-164.385-113.338-270.149-113.338-22.668 0-44.87 1.992-66.442 5.81l2.282-0.335c106.181-71.554 236.852-114.433 377.505-115.025l0.153-0.001c389.488 0 692.002 339.901 675.735 759.289 0 0.508 0 1.017 0 1.433 0 1.155 0 2.264 0 3.281s0 2.588 0 3.928c47.446 35.951 86.54 80.204 115.708 130.892l1.12 2.11z" />
<glyph unicode="&#xe91a;" glyph-name="user-dependents" d="M785.934 560.8c50.104 41.673 81.768 104.034 81.768 173.789 0 124.579-100.991 225.57-225.57 225.57s-225.57-100.991-225.57-225.57c0-16.859 1.849-33.285 5.356-49.088l-0.279 1.499c-11.78 2.181-25.334 3.429-39.18 3.429-124.579 0-225.57-100.991-225.57-225.57 0-69.595 31.517-131.828 81.057-173.206l0.358-0.291c-140.85-58.484-238.134-194.859-238.303-353.976v-0.021h80.137c0.186 166.711 135.239 301.816 301.912 302.086h0.026c0.003 0 0.006 0 0.010 0 124.579 0 225.57 100.991 225.57 225.57 0 16.823-1.842 33.215-5.334 48.987l0.279-1.498c11.868-2.209 25.523-3.473 39.472-3.473 0.022 0 0.044 0 0.065 0h-0.004c97.983-0.007 185.054-46.716 240.168-119.081l0.54-0.738 54.226 60.34c-39.968 48.235-90.692 86.153-148.594 110.303l-2.538 0.939zM382.104 319.469c-80.321 0-145.433 65.113-145.433 145.433s65.113 145.433 145.433 145.433c80.321 0 145.433-65.113 145.433-145.433v0c-0.152-80.259-65.174-145.282-145.419-145.433h-0.015zM642.163 589.056c-80.321 0-145.433 65.113-145.433 145.433s65.113 145.433 145.433 145.433c80.321 0 145.433-65.113 145.433-145.433v0c-0.152-80.259-65.174-145.282-145.419-145.433h-0.015zM964.461 360.28l-277.926-309.447-156.831 149.292-55.176-57.966 216.518-206.1 332.954 370.796z" />
<glyph unicode="&#xe91b;" glyph-name="user-home" d="M353.583 960h-235.159c-65.378-0.063-118.361-53.045-118.423-118.417v-235.165c0.063-65.378 53.045-118.361 118.417-118.423h235.165c65.378 0.063 118.361 53.045 118.423 118.417v235.165c-0.063 65.378-53.045 118.361-118.417 118.423h-0.006zM391.981 606.417c-0.042-21.19-17.208-38.357-38.395-38.399h-235.163c-21.206 0.021-38.394 17.196-38.435 38.395v235.163c0.021 21.219 17.216 38.414 38.433 38.435h235.161c21.19-0.042 38.357-17.208 38.399-38.395v-0.004zM904.073 960h-232.005c-66.272-0.042-119.99-53.734-120.074-119.992v-232.087c0.083-66.241 53.76-119.917 119.992-120h232.087c66.209 0.125 119.844 53.785 119.927 119.992v232.087c-0.083 66.215-53.718 119.875-119.915 120h-0.012zM944.085 607.921c-0.021-22.090-17.922-39.991-40.010-40.012h-232.007c-0.011 0-0.024 0-0.037 0-22.106 0-40.028 17.91-40.049 40.010v232.081c0.021 22.090 17.922 39.991 40.010 40.012h232.081c22.090-0.021 39.991-17.922 40.012-40.010v-0.002zM353.583 408.006h-235.159c-65.378-0.063-118.361-53.045-118.423-118.417v-235.165c0.063-65.378 53.045-118.361 118.417-118.423h235.165c65.378 0.063 118.361 53.045 118.423 118.417v235.165c-0.063 65.378-53.045 118.361-118.417 118.423h-0.006zM391.981 54.423c-0.042-21.19-17.208-38.357-38.395-38.399h-235.163c-21.19 0.042-38.357 17.208-38.399 38.395v235.163c0.021 21.206 17.196 38.394 38.395 38.435h235.163c21.203-0.042 38.378-17.229 38.399-38.433v-0.002zM904.073 408.006h-232.005c-66.272-0.042-119.99-53.734-120.074-119.992v-232.087c0.083-66.241 53.76-119.917 119.992-120h232.087c66.241 0.083 119.917 53.76 120 119.992v232.013c-0.042 66.272-53.734 119.99-119.992 120.074h-0.008zM944.085 55.927c-0.021-22.090-17.922-39.991-40.010-40.012h-232.007c-22.090 0.021-39.991 17.922-40.012 40.010v232.007c0.021 22.090 17.922 39.991 40.010 40.012h232.007c22.090-0.021 39.991-17.922 40.012-40.010v-0.002z" />
<glyph unicode="&#xe91c;" glyph-name="user-info" d="M874.027 298.046c-53.294 53.485-118.365 95.197-190.998 120.92l-3.568 1.102c78.050 54.080 128.521 143.177 128.521 244.064 0 163.477-132.524 296.001-296.001 296.001s-296.001-132.524-296.001-296.001c0-100.886 50.472-189.984 127.542-243.421l0.979-0.642c-202.155-71.742-344.352-261.28-344.502-484.050v-0.018h79.983c0 238.607 193.429 432.036 432.036 432.036s432.036-193.429 432.036-432.036v0h79.983c0.001 0.397 0.002 0.867 0.002 1.337 0 140.975-57.348 268.556-149.989 360.686l-0.024 0.023zM511.981 448.019c-119.283 0-215.98 96.698-215.98 215.98s96.698 215.98 215.98 215.98c119.283 0 215.98-96.698 215.98-215.98v0c-0.149-119.222-96.758-215.831-215.966-215.98h-0.015z" />
<glyph unicode="&#xe91d;" d="M846.141 586.328l39.952 123.447c-58.915 82.984-142.8 144.836-240.594 174.957l-3.259 0.864-103.81-74.857v-149.941l166.343-120.212z" />
<glyph unicode="&#xe91e;" d="M968.714 457.155l-105.525 76.831-146.253-47.522-61.885-190.281 89.868-123.673 131.114-0.226c57.917 75.485 92.812 171.28 92.812 275.225 0 0.162 0 0.323 0 0.485v-0.025c0 3.106-0.065 6.146-0.129 9.187z" />
<glyph unicode="&#xe91f;" d="M306.417 488.34l-147.062 47.781-104.005-75.634q-0.162-6.244-0.194-12.519c0-0.112 0-0.245 0-0.378 0-102.642 34.026-197.336 91.413-273.42l-0.833 1.153 130.046-0.388 91.647 126.164z" />
<glyph unicode="&#xe920;" d="M319.713 541.814l163.56 119.080v149.974l-102.614 74.857c-101.242-31.113-185.191-93.373-242.881-175.431l-0.971-1.457 38.82-120.147z" />
<glyph unicode="&#xe921;" d="M412.007 268.718l-92.003-126.649 40.728-125.161c45.072-16.332 97.093-25.775 151.32-25.775 52.624 0 103.17 8.893 150.218 25.258l-3.209-0.971 40.825 125.194-93.038 128.040z" />
<glyph unicode="&#xe922;" d="M512 960c-282.77 0-512-229.23-512-512s229.23-512 512-512c282.77 0 512 229.23 512 512v0c-0.331 282.637-229.364 511.669-511.969 512h-0.031zM538.43 810.868l103.81 74.728c100.959-30.999 184.749-92.851 242.603-174.397l0.959-1.424-39.79-123.447-141.304-45.743-166.278 120.212zM380.66 885.596l102.614-74.728v-149.974l-163.528-119.047-143.892 46.842-39.111 120.147c58.714 83.456 142.678 145.667 240.671 175.897l3.246 0.862zM145.574 175.356c-56.554 74.93-90.58 169.624-90.58 272.266 0 0.133 0 0.265 0 0.398v-0.021q0 6.276 0.194 12.519l104.166 75.698 147.062-47.878 60.947-187.273-91.647-126.164zM659.062 15.386c-43.84-15.395-94.387-24.289-147.010-24.289-54.227 0-106.248 9.444-154.508 26.777l3.189-1-40.728 125.194 92.003 126.649h194.843l93.038-128.040zM744.918 172.477l-89.868 123.673 61.885 190.281 146.253 47.522 105.525-76.831c0-3.041 0-6.114 0-9.187 0-0.137 0-0.299 0-0.46 0-103.945-34.895-199.739-93.61-276.308l0.798 1.084z" />
<glyph unicode="&#xe923;" glyph-name="user-purchase-history" horiz-adv-x="1023" d="M763.045 135.753c0-22.060-17.883-39.944-39.944-39.944s-39.944 17.883-39.944 39.944c0 22.060 17.883 39.944 39.944 39.944s39.944-17.883 39.944-39.944zM671.157 651.145c0-22.060-17.883-39.944-39.944-39.944s-39.944 17.883-39.944 39.944c0 22.060 17.883 39.944 39.944 39.944s39.944-17.883 39.944-39.944zM982.786 335.505h40.111v239.697h-102.016c-0.023 0-0.051 0-0.079 0-44.121 0-79.888 35.767-79.888 79.888 0 30.692 17.307 57.341 42.695 70.72l0.436 0.21 34.027 17.716-101.715 216.265-816.359-384.765v-239.697h40.111c44.13 0 79.904-35.774 79.904-79.904s-35.774-79.904-79.904-79.904v0h-40.111v-239.697h1022.83v239.663h-40.111c-44.13 0-79.904 35.774-79.904 79.904s35.774 79.904 79.904 79.904v0zM543.671 743.033c6.739-13.060 20.136-21.834 35.582-21.834 22.042 0 39.91 17.869 39.91 39.91 0 5.77-1.224 11.253-3.427 16.205l0.101-0.254 162.282 76.545 37.002-78.651c-33.212-29.395-54.044-72.128-54.044-119.727 0-29.459 7.979-57.054 21.894-80.742l-0.407 0.75h-594.712zM942.842 100.956v-84.968h-179.764c-1.935 20.522-19.079 36.453-39.944 36.453s-38.009-15.931-39.932-36.293l-0.012-0.161h-603.436v84.968c69.447 18.41 119.797 80.698 119.797 154.745s-50.35 136.335-118.682 154.493l-1.116 0.252v84.935h603.403c-0.106-1.096-0.167-2.37-0.167-3.658 0-22.153 17.958-40.111 40.111-40.111s40.111 17.958 40.111 40.111c0 1.288-0.061 2.562-0.179 3.818l0.012-0.161h179.764v-84.968c-69.447-18.41-119.797-80.698-119.797-154.745s50.35-136.335 118.682-154.493l1.116-0.252zM763.045 375.449c0-22.060-17.883-39.944-39.944-39.944s-39.944 17.883-39.944 39.944c0 22.060 17.883 39.944 39.944 39.944s39.944-17.883 39.944-39.944zM763.045 255.618c0-22.060-17.883-39.944-39.944-39.944s-39.944 17.883-39.944 39.944c0 22.060 17.883 39.944 39.944 39.944s39.944-17.883 39.944-39.944z" />
<glyph unicode="&#xe924;" glyph-name="world" d="M512 951.607c-278.134 0-503.607-225.472-503.607-503.607s225.472-503.607 503.607-503.607c278.134 0 503.607 225.472 503.607 503.607v0c0 278.134-225.472 503.607-503.607 503.607v0zM947.553 271.57l-143.226-24.71c15.603 54.973 25.147 118.293 26.345 183.652l0.010 0.702h151.082c-2.113-58.023-14.487-112.588-35.351-162.734l1.14 3.090zM42.37 431.213h151.082c1.21-66.061 10.753-129.381 27.619-189.642l-1.264 5.288-143.226 24.71c-19.725 47.055-32.099 101.621-34.188 158.811l-0.024 0.832zM76.447 624.43l143.226 24.71c-15.602-54.972-25.145-118.292-26.345-183.65l-0.010-0.703h-151.082c2.113 58.023 14.487 112.588 35.351 162.734l-1.14-3.090zM528.787 682.076c64.19-0.849 126.358-6.799 186.9-17.465l-6.944 1.013 59.258-10.072c17.339-56.821 27.89-122.259 29.099-189.976l0.009-0.656h-268.322zM714.483 698.863c-55.352 9.914-119.517 15.988-184.952 16.78l-0.744 0.007v201.443c96.222-9.233 179.821-97.364 227.227-225.582zM495.213 715.65c-66.167-0.8-130.32-6.874-192.795-17.822l7.132 1.035-41.564-7.185c47.373 128.285 130.938 216.417 227.227 225.616zM315.258 665.625c53.598 9.653 115.765 15.603 179.166 16.443l0.789 0.008v-217.289h-268.322c1.219 68.373 11.77 133.811 30.429 195.734l-1.321-5.102zM226.892 431.213h268.322v-217.289c-64.19 0.849-126.358 6.799-186.9 17.465l6.944-1.013-59.258 10.072c-17.35 56.865-27.903 122.35-29.099 190.118l-0.009 0.648zM309.55 197.271c55.291-9.964 119.439-16.119 184.857-17.013l0.839-0.009v-201.443c-96.222 9.266-179.821 97.364-227.227 225.616zM528.82 180.249c66.248 0.904 130.384 7.060 192.845 18.071l-7.182-1.049 41.564 7.185c-47.373-128.285-130.938-216.417-227.227-225.616zM708.776 230.341c-53.6-9.653-115.768-15.603-179.169-16.443l-0.787-0.008v217.323h268.322c-1.219-68.373-11.77-133.811-30.429-195.734l1.321 5.102zM830.682 464.787c-1.209 66.061-10.752 129.381-27.619 189.642l1.264-5.288 143.226-24.71c19.682-47.064 32.011-101.635 34.054-158.828l0.023-0.816zM930.564 661.428l-137.283 23.703c-26.024 83.266-72.286 153.894-133.135 208.623l-0.422 0.373c118.708-40.43 213.964-123.292 269.6-230.085l1.24-2.615zM364.275 894.128c-61.275-55.111-107.538-125.751-132.668-205.751l-0.888-3.28-137.283-23.703c56.869 109.42 152.126 192.295 267.516 231.746l3.324 0.987zM93.436 234.572l137.283-23.703c26.024-83.266 72.286-153.894 133.135-208.623l0.422-0.373c-118.708 40.43-213.964 123.292-269.6 230.085l-1.24 2.615zM659.725 1.872c61.271 55.103 107.533 125.731 132.668 205.718l0.888 3.279 137.283 23.703c-56.876-109.407-152.131-192.269-267.515-231.712l-3.324-0.987z" />
<glyph unicode="&#xe925;" glyph-name="you-tube" d="M347.45 960l-40.64-158.011h-4.056l-42.611 158.011h-66.268l84.048-261.999v-110.244h48.108v117.522l88.066 254.758zM557.625 787.811c0.031 0.851 0.049 1.851 0.049 2.855 0 20.692-7.597 39.609-20.154 54.114l0.088-0.104c-10.013 14.185-26.337 23.336-44.798 23.336-0.537 0-1.073-0.008-1.607-0.023l0.078 0.002c-0.163 0.002-0.356 0.002-0.549 0.002-19.767 0-37.424-9.038-49.063-23.207l-0.088-0.111c-14.056-12.732-22.849-31.053-22.849-51.428 0-1.326 0.037-2.644 0.111-3.951l-0.008 0.181v-122.261c-0.052-1.073-0.082-2.331-0.082-3.596 0-21.779 8.825-41.496 23.094-55.772v0c10.461-13.358 26.59-21.863 44.705-21.863 1.197 0 2.386 0.037 3.565 0.11l-0.162-0.008c26.537 0 29.798 7.127 45.113 21.116 13.942 13.906 22.568 33.137 22.568 54.382 0 1.54-0.045 3.070-0.135 4.588l0.010-0.209v121.693zM743.804 867.878h-46.706v-186.52c-10.476-14.692-21.687-27.587-34.010-39.323l-0.11-0.104c-0.323-0.041-0.698-0.065-1.077-0.065-3.381 0-6.325 1.876-7.846 4.644l-0.023 0.046c-2.422 3.689-3.864 8.211-3.864 13.069 0 0.657 0.026 1.308 0.078 1.952l-0.005-0.085v206.385h-46.744v-226.326c-0.275-2.647-0.432-5.719-0.432-8.828 0-16.073 4.194-31.166 11.547-44.245l-0.235 0.454c5.221-2.824 11.43-4.483 18.026-4.483 10.416 0 19.866 4.139 26.794 10.862l-0.010-0.009c15.695 13.008 28.451 28.963 37.53 47.081l0.38 0.838v-49.625h46.706zM1024 304.376c0.008 0.646 0.012 1.408 0.012 2.172 0 103.707-83.484 187.915-186.914 189.085l-0.111 0.001h-649.937c-103.57-1.214-187.062-85.456-187.062-189.199 0-0.724 0.004-1.447 0.012-2.17l-0.001 0.11v-177.194c-0.006-0.578-0.010-1.262-0.010-1.946 0-103.75 83.487-188 186.944-189.235l0.117-0.001h649.937c103.549 1.214 187.023 85.44 187.023 189.161 0 0.711-0.004 1.42-0.012 2.129l0.001-0.108zM766.209 29.677c-1.022-0.058-2.218-0.092-3.422-0.092-18.471 0-35.111 7.84-46.774 20.373l-0.036 0.039c-11.518 13.56-18.523 31.266-18.523 50.609 0 1.628 0.050 3.244 0.147 4.846l-0.011-0.22v109.94c-0.027 0.993-0.043 2.162-0.043 3.334 0 25.894 7.547 50.026 20.561 70.316l-0.312-0.52c12.574 12.433 29.869 20.114 48.958 20.114 1.008 0 2.010-0.021 3.008-0.064l-0.142 0.005c1.353 0.1 2.93 0.157 4.521 0.157 17.671 0 33.696-7.046 45.42-18.481l-0.013 0.013c11.168-19.925 17.746-43.726 17.746-69.064 0-2.043-0.043-4.076-0.127-6.098l0.010 0.289v-46.44h-90.758v-61.718c-0.103-1.252-0.161-2.71-0.161-4.182 0-8.233 1.834-16.038 5.116-23.029l-0.14 0.332c3.196-4.649 8.486-7.658 14.478-7.658 0.575 0 1.144 0.028 1.705 0.082l-0.071-0.006c0.599-0.067 1.294-0.106 1.997-0.106 5.679 0 10.774 2.497 14.248 6.453l0.018 0.021c3.204 6.661 5.075 14.483 5.075 22.742 0 1.857-0.095 3.692-0.279 5.501l0.019-0.227v11.070h48.753v-12.7c0.156-1.867 0.245-4.041 0.245-6.236 0-19.189-6.789-36.793-18.097-50.54l0.11 0.138c-12.578-11.866-29.582-19.158-48.29-19.158-1.697 0-3.38 0.060-5.047 0.178l0.224-0.013zM788.386 206.87v8.644c0.022 0.995 0.034 2.168 0.034 3.343 0 14.287-1.838 28.145-5.29 41.35l0.252-1.134c-3.349 4.132-8.424 6.752-14.111 6.752-0.598 0-1.189-0.029-1.772-0.086l0.074 0.006c-0.506 0.048-1.093 0.075-1.687 0.075-5.805 0-11.001-2.61-14.478-6.72l-0.023-0.028c-3.201-12.063-5.039-25.911-5.039-40.19 0-1.185 0.013-2.367 0.038-3.545l-0.003 0.176v-8.644zM607.061 29.070c-0.287-0.005-0.627-0.008-0.966-0.008-9.014 0-17.526 2.146-25.055 5.954l0.318-0.146c-8.277 4.329-15.214 10.128-20.71 17.114l-0.103 0.136v-19.562h-49.284v369.438h46.327v-111.684c6.763 7.008 14.575 12.945 23.194 17.572l0.5 0.245c6.541 3.775 14.369 6.041 22.717 6.141h0.029c0.592 0.030 1.286 0.047 1.983 0.047 13.567 0 25.62-6.479 33.236-16.511l0.075-0.103c7.716-12.047 12.3-26.744 12.3-42.511 0-1.823-0.061-3.631-0.182-5.423l0.013 0.243v-164.759c0.089-1.287 0.139-2.79 0.139-4.305 0-13.964-4.304-26.923-11.659-37.622l0.146 0.225c-7.465-8.924-18.605-14.56-31.062-14.56-0.635 0-1.267 0.015-1.896 0.044l0.089-0.003zM605.62 247.245c-0.98 7.674-4.354 14.421-9.337 19.611l0.011-0.012c-3.453 3.974-8.515 6.472-14.16 6.472-0.353 0-0.704-0.010-1.052-0.029l0.048 0.002c-0.026 0-0.056 0-0.087 0-3.767 0-7.325-0.896-10.472-2.487l0.133 0.061c-4.947-2-9.215-4.552-13.018-7.653l0.090 0.071v-181.97c4.173-3.649 9.012-6.675 14.288-8.858l0.345-0.127c3.34-1.815 7.313-2.882 11.535-2.882 0.050 0 0.099 0 0.149 0h-0.008c0.358-0.029 0.774-0.046 1.195-0.046 4.81 0 9.113 2.175 11.978 5.594l0.020 0.024c4.633 4.523 7.73 10.602 8.444 17.391l0.011 0.124v154.751zM416.295 63.114c-8.007-10.153-17.285-18.829-27.704-25.959l-0.426-0.275c-8.069-4.992-17.836-7.985-28.294-8.075h-0.025c-0.61-0.045-1.321-0.070-2.038-0.070-9.482 0-17.924 4.451-23.351 11.379l-0.049 0.065c-6.291 8.86-10.056 19.897-10.056 31.814 0 0.811 0.017 1.618 0.052 2.42l-0.004-0.114v233.642h47.199v-216.507c-0.038-0.485-0.060-1.050-0.060-1.62 0-4.176 1.164-8.080 3.185-11.405l-0.055 0.097c2.257-2.492 5.504-4.051 9.116-4.051 0.314 0 0.625 0.012 0.933 0.035l-0.041-0.002c6.171 0.423 11.807 2.387 16.628 5.504l-0.137-0.083c6.865 3.806 12.78 8.223 18.027 13.325l-0.019-0.019v214.725h45.948v-278.263h-48.829v33.551zM279.059 29.791h-46.857v325.689h-45.758v46.516h139.89v-46.516h-47.236v-325.689zM488.363 636.737c-0.482-0.036-1.045-0.057-1.612-0.057-6.287 0-11.985 2.526-16.133 6.618l0.003-0.003c-3.946 4.445-6.357 10.331-6.357 16.78 0 0.632 0.023 1.259 0.069 1.879l-0.005-0.083v129.805c-0.007 0.195-0.011 0.424-0.011 0.654 0 5.877 2.577 11.152 6.662 14.757l0.021 0.018c4.332 3.738 10.016 6.016 16.232 6.016 0.398 0 0.793-0.009 1.187-0.028l-0.056 0.002c0.339 0.020 0.737 0.031 1.136 0.031 5.72 0 10.902-2.299 14.675-6.023l-0.002 0.002c4.409-3.502 7.211-8.863 7.211-14.879 0-0.194-0.003-0.387-0.009-0.579l0.001 0.028v-129.805c0.018-0.355 0.028-0.772 0.028-1.19 0-6.761-2.685-12.894-7.048-17.392l0.006 0.006c-3.683-4.050-8.974-6.583-14.856-6.583-0.348 0-0.695 0.009-1.039 0.026l0.048-0.002z" />
<glyph unicode="&#xe926;" glyph-name="pencil" d="M864 960c88.364 0 160-71.634 160-160 0-36.020-11.91-69.258-32-96l-64-64-224 224 64 64c26.742 20.090 59.978 32 96 32zM64 224l-64-288 288 64 592 592-224 224-592-592zM715.578 596.422l-448-448-55.156 55.156 448 448 55.156-55.156z" />
<glyph unicode="&#xe958;" glyph-name="mobile" d="M736 960h-448c-52.8 0-96-43.2-96-96v-832c0-52.8 43.2-96 96-96h448c52.8 0 96 43.2 96 96v832c0 52.8-43.2 96-96 96zM384 912h256v-32h-256v32zM512 0c-35.346 0-64 28.654-64 64s28.654 64 64 64 64-28.654 64-64-28.654-64-64-64zM768 192h-512v640h512v-640z" />
<glyph unicode="&#xea0a;" glyph-name="plus" d="M992 576h-352v352c0 17.672-14.328 32-32 32h-192c-17.672 0-32-14.328-32-32v-352h-352c-17.672 0-32-14.328-32-32v-192c0-17.672 14.328-32 32-32h352v-352c0-17.672 14.328-32 32-32h192c17.672 0 32 14.328 32 32v352h352c17.672 0 32 14.328 32 32v192c0 17.672-14.328 32-32 32z" />
<glyph unicode="&#xea0b;" glyph-name="minus" d="M0 544v-192c0-17.672 14.328-32 32-32h960c17.672 0 32 14.328 32 32v192c0 17.672-14.328 32-32 32h-960c-17.672 0-32-14.328-32-32z" />
<glyph unicode="&#xea0f;" glyph-name="cross" d="M1014.662 137.34c-0.004 0.004-0.008 0.008-0.012 0.010l-310.644 310.65 310.644 310.65c0.004 0.004 0.008 0.006 0.012 0.010 3.344 3.346 5.762 7.254 7.312 11.416 4.246 11.376 1.824 24.682-7.324 33.83l-146.746 146.746c-9.148 9.146-22.45 11.566-33.828 7.32-4.16-1.55-8.070-3.968-11.418-7.31 0-0.004-0.004-0.006-0.008-0.010l-310.648-310.652-310.648 310.65c-0.004 0.004-0.006 0.006-0.010 0.010-3.346 3.342-7.254 5.76-11.414 7.31-11.38 4.248-24.682 1.826-33.83-7.32l-146.748-146.748c-9.148-9.148-11.568-22.452-7.322-33.828 1.552-4.16 3.97-8.072 7.312-11.416 0.004-0.002 0.006-0.006 0.010-0.010l310.65-310.648-310.65-310.652c-0.002-0.004-0.006-0.006-0.008-0.010-3.342-3.346-5.76-7.254-7.314-11.414-4.248-11.376-1.826-24.682 7.322-33.83l146.748-146.746c9.15-9.148 22.452-11.568 33.83-7.322 4.16 1.552 8.070 3.97 11.416 7.312 0.002 0.004 0.006 0.006 0.010 0.010l310.648 310.65 310.648-310.65c0.004-0.002 0.008-0.006 0.012-0.008 3.348-3.344 7.254-5.762 11.414-7.314 11.378-4.246 24.684-1.826 33.828 7.322l146.746 146.748c9.148 9.148 11.57 22.454 7.324 33.83-1.552 4.16-3.97 8.068-7.314 11.414z" />
<glyph unicode="&#xea10;" glyph-name="checkmark" d="M864 832l-480-480-224 224-160-160 384-384 640 640z" />
<glyph unicode="&#xea2e;" glyph-name="loop2" d="M889.68 793.68c-93.608 102.216-228.154 166.32-377.68 166.32-282.77 0-512-229.23-512-512h96c0 229.75 186.25 416 416 416 123.020 0 233.542-53.418 309.696-138.306l-149.696-149.694h352v352l-134.32-134.32zM928 448c0-229.75-186.25-416-416-416-123.020 0-233.542 53.418-309.694 138.306l149.694 149.694h-352v-352l134.32 134.32c93.608-102.216 228.154-166.32 377.68-166.32 282.77 0 512 229.23 512 512h-96z" />
<glyph unicode="&#xea3a;" glyph-name="arrow-up2" d="M877.254 557.254l-320 320c-24.992 24.994-65.514 24.994-90.508 0l-320-320c-24.994-24.994-24.994-65.516 0-90.51 24.994-24.996 65.516-24.996 90.51 0l210.744 210.746v-613.49c0-35.346 28.654-64 64-64s64 28.654 64 64v613.49l210.746-210.746c12.496-12.496 28.876-18.744 45.254-18.744s32.758 6.248 45.254 18.746c24.994 24.994 24.994 65.514 0 90.508z" />
<glyph unicode="&#xea3c;" glyph-name="arrow-right2" d="M621.254 82.746l320 320c24.994 24.992 24.994 65.516 0 90.51l-320 320c-24.994 24.992-65.516 24.992-90.51 0-24.994-24.994-24.994-65.516 0-90.51l210.746-210.746h-613.49c-35.346 0-64-28.654-64-64s28.654-64 64-64h613.49l-210.746-210.746c-12.496-12.496-18.744-28.876-18.744-45.254s6.248-32.758 18.744-45.254c24.994-24.994 65.516-24.994 90.51 0z" />
<glyph unicode="&#xea3e;" glyph-name="arrow-down2" d="M877.254 338.746l-320-320c-24.992-24.994-65.514-24.994-90.508 0l-320 320c-24.994 24.994-24.994 65.516 0 90.51 24.994 24.996 65.516 24.996 90.51 0l210.744-210.746v613.49c0 35.346 28.654 64 64 64s64-28.654 64-64v-613.49l210.746 210.746c12.496 12.496 28.876 18.744 45.254 18.744s32.758-6.248 45.254-18.746c24.994-24.994 24.994-65.514 0-90.508z" />
<glyph unicode="&#xea40;" glyph-name="arrow-left2" d="M402.746 82.746l-320 320c-24.994 24.992-24.994 65.516 0 90.51l320 320c24.994 24.992 65.516 24.992 90.51 0 24.994-24.994 24.994-65.516 0-90.51l-210.746-210.746h613.49c35.346 0 64-28.654 64-64s-28.654-64-64-64h-613.49l210.746-210.746c12.496-12.496 18.744-28.876 18.744-45.254s-6.248-32.758-18.744-45.254c-24.994-24.994-65.516-24.994-90.51 0z" />
<glyph unicode="&#xea92;" glyph-name="instagram" d="M512 867.8c136.8 0 153-0.6 206.8-3 50-2.2 77-10.6 95-17.6 23.8-9.2 41-20.4 58.8-38.2 18-18 29-35 38.4-58.8 7-18 15.4-45.2 17.6-95 2.4-54 3-70.2 3-206.8s-0.6-153-3-206.8c-2.2-50-10.6-77-17.6-95-9.2-23.8-20.4-41-38.2-58.8-18-18-35-29-58.8-38.4-18-7-45.2-15.4-95-17.6-54-2.4-70.2-3-206.8-3s-153 0.6-206.8 3c-50 2.2-77 10.6-95 17.6-23.8 9.2-41 20.4-58.8 38.2-18 18-29 35-38.4 58.8-7 18-15.4 45.2-17.6 95-2.4 54-3 70.2-3 206.8s0.6 153 3 206.8c2.2 50 10.6 77 17.6 95 9.2 23.8 20.4 41 38.2 58.8 18 18 35 29 58.8 38.4 18 7 45.2 15.4 95 17.6 53.8 2.4 70 3 206.8 3zM512 960c-139 0-156.4-0.6-211-3-54.4-2.4-91.8-11.2-124.2-23.8-33.8-13.2-62.4-30.6-90.8-59.2-28.6-28.4-46-57-59.2-90.6-12.6-32.6-21.4-69.8-23.8-124.2-2.4-54.8-3-72.2-3-211.2s0.6-156.4 3-211c2.4-54.4 11.2-91.8 23.8-124.2 13.2-33.8 30.6-62.4 59.2-90.8 28.4-28.4 57-46 90.6-59 32.6-12.6 69.8-21.4 124.2-23.8 54.6-2.4 72-3 211-3s156.4 0.6 211 3c54.4 2.4 91.8 11.2 124.2 23.8 33.6 13 62.2 30.6 90.6 59s46 57 59 90.6c12.6 32.6 21.4 69.8 23.8 124.2 2.4 54.6 3 72 3 211s-0.6 156.4-3 211c-2.4 54.4-11.2 91.8-23.8 124.2-12.6 34-30 62.6-58.6 91-28.4 28.4-57 46-90.6 59-32.6 12.6-69.8 21.4-124.2 23.8-54.8 2.6-72.2 3.2-211.2 3.2v0zM512 711c-145.2 0-263-117.8-263-263s117.8-263 263-263 263 117.8 263 263c0 145.2-117.8 263-263 263zM512 277.4c-94.2 0-170.6 76.4-170.6 170.6s76.4 170.6 170.6 170.6c94.2 0 170.6-76.4 170.6-170.6s-76.4-170.6-170.6-170.6zM846.8 721.4c0-33.91-27.49-61.4-61.4-61.4s-61.4 27.49-61.4 61.4c0 33.91 27.49 61.4 61.4 61.4s61.4-27.49 61.4-61.4z" />
</font>
</defs>
</svg>
